# Blender v3.4.1 OBJ File: 'untitled.blend'
# www.blender.org
mtllib gemUV.mtl
o gem.001
v 0.000000 0.673438 0.458291
v -0.155473 0.687746 0.378247
v -0.155473 0.163939 0.000000
v 0.000000 0.038785 0.000000
v 0.000000 1.361628 0.458291
v -0.155473 1.361628 0.378247
v -0.155473 2.071941 0.378247
v 0.000000 2.088304 0.458291
v 0.000000 2.632185 0.000000
v -0.155473 2.520829 0.000000
v 0.155473 0.687746 0.378247
v 0.155473 0.163939 0.000000
v 0.155473 1.361628 0.378247
v 0.155473 2.071941 0.378247
v 0.155473 2.520829 0.000000
v 0.000000 2.088304 -0.458291
v -0.155473 2.071941 -0.378247
v 0.155473 2.071941 -0.378247
v -0.155473 1.361628 -0.378247
v 0.000000 1.361628 -0.458291
v 0.000000 0.673438 -0.458291
v -0.155473 0.687746 -0.378247
v 0.155473 1.361628 -0.378247
v 0.155473 0.687746 -0.378247
v 0.155473 1.361627 0.000000
v -0.155473 1.361627 0.000000
vt 0.707423 0.244901
vt 0.676580 0.250414
vt 0.530835 0.048581
vt 0.530835 0.000356
vt 0.707423 0.510073
vt 0.676580 0.510073
vt 0.676580 0.783771
vt 0.707423 0.790076
vt 0.530834 0.999644
vt 0.530834 0.956736
vt 0.322691 0.749586
vt 0.353533 0.755100
vt 0.176945 0.999644
vt 0.176945 0.951419
vt 0.322691 0.489927
vt 0.353533 0.489927
vt 0.353533 0.209924
vt 0.322691 0.216229
vt 0.176945 0.043264
vt 0.176945 0.000356
vt 0.354246 0.790076
vt 0.385089 0.783771
vt 0.031199 0.216229
vt 0.000356 0.209924
vt 0.385089 0.510073
vt 0.354246 0.510073
vt 0.354246 0.244901
vt 0.385089 0.250414
vt 0.000356 0.489927
vt 0.031199 0.489927
vt 0.031199 0.749586
vt 0.000356 0.755100
vt 0.176945 0.489927
vt 0.530834 0.510073
vn -0.4263 -0.5296 0.7334
vn -0.4577 -0.0000 0.8891
vn -0.4190 0.5851 0.6943
vn 0.4263 -0.5296 0.7334
vn 0.4577 -0.0000 0.8891
vn 0.4190 0.5851 0.6943
vn -0.4190 0.5851 -0.6943
vn 0.4190 0.5851 -0.6943
vn -0.4577 0.0000 -0.8891
vn -0.4263 -0.5296 -0.7334
vn 0.4577 0.0000 -0.8891
vn 0.4263 -0.5296 -0.7334
vn 1.0000 -0.0000 0.0000
vn -1.0000 -0.0000 0.0000
usemtl initialShadingGroup.001
s 1
f 1/1/1 2/2/1 3/3/1 4/4/1
f 2/2/2 1/1/2 5/5/2 6/6/2
f 7/7/3 8/8/3 9/9/3 10/10/3
f 11/11/4 1/12/4 4/13/4 12/14/4
f 1/12/5 11/11/5 13/15/5 5/16/5
f 8/17/6 14/18/6 15/19/6 9/20/6
f 10/10/7 9/9/7 16/21/7 17/22/7
f 9/20/8 15/19/8 18/23/8 16/24/8
f 19/25/9 20/26/9 21/27/9 22/28/9
f 22/28/10 21/27/10 4/4/10 3/3/10
f 20/29/11 23/30/11 24/31/11 21/32/11
f 21/32/12 24/31/12 12/14/12 4/13/12
f 11/11/13 12/14/13 25/33/13 13/15/13
f 6/6/14 26/34/14 3/3/14 2/2/14
f 22/28/14 3/3/14 26/34/14 19/25/14
f 23/30/13 25/33/13 12/14/13 24/31/13
f 6/6/2 5/5/2 8/8/2 7/7/2
f 10/10/14 26/34/14 6/6/14 7/7/14
f 19/25/14 26/34/14 10/10/14 17/22/14
f 17/22/9 16/21/9 20/26/9 19/25/9
f 16/24/11 18/23/11 23/30/11 20/29/11
f 15/19/13 25/33/13 23/30/13 18/23/13
f 13/15/13 25/33/13 15/19/13 14/18/13
f 5/16/5 13/15/5 14/18/5 8/17/5
